ffmpeg started on 2025-06-06 at 19:06:02
Report written to "D:\Convert\FFMetrics\reports\ssim_report-6.txt"
Log level: 32
Command line:
ffmpeg -hide_banner -nostdin -i "G:\\\xc0\xed\xe8\xec\xe5\\\xce\xed\xe3\xee\xe8\xed\xe3\xe8\\!_36_\xce\xf1\xe5\xed\xfc_2024\\DreamCast\\\xcf\xf3\xed\xe8\xf0\xf3 - \xec\xe8\xeb\xe0\xff \xf1\xeb\xe8\xe7\xfc\\[DC] Puniru wa Kawaii Slime - 12_Telegram_HEVC.mkv" -i "G:\\\xc0\xed\xe8\xec\xe5\\\xce\xed\xe3\xee\xe8\xed\xe3\xe8\\!_36_\xce\xf1\xe5\xed\xfc_2024\\DreamCast\\\xcf\xf3\xed\xe8\xf0\xf3 - \xec\xe8\xeb\xe0\xff \xf1\xeb\xe8\xe7\xfc\\[DC] Puniru wa Kawaii Slime - 12_Telegram.mp4" -lavfi "[0:v]settb=AVTB,setpts=PTS-STARTPTS,format=pix_fmts=yuv420p10,fps=24000/1001,scale=1920:1080:flags=bicubic[main];[1:v]settb=AVTB,setpts=PTS-STARTPTS,format=pix_fmts=yuv420p,fps=24000/1001,scale=1920:1080:flags=bicubic[ref];[main][ref]ssim=eof_action=endall:stats_file='D\\:/Convert/FFMetrics/logs/ssim_logfile-6.txt'" -f null -
Input #0, matroska,webm, from 'G:\Аниме\Онгоинги\!_36_Осень_2024\DreamCast\Пуниру - милая слизь\[DC] Puniru wa Kawaii Slime - 12_Telegram_HEVC.mkv':
  Metadata:
    COMPATIBLE_BRANDS: isomiso2avc1mp41
    MAJOR_BRAND     : isom
    MINOR_VERSION   : 512
    ENCODER         : Lavf61.7.100
  Duration: 00:23:41.61, start: -0.021000, bitrate: 1219 kb/s
  Chapters:
    Chapter #0:0: start 0.000000, end 90.374000
      Metadata:
        title           : 
    Chapter #0:1: start 90.374000, end 1324.910000
      Metadata:
        title           : 
    Chapter #0:2: start 1324.910000, end 1421.590000
      Metadata:
        title           : 
  Stream #0:0: Video: hevc (Main 10), yuv420p10le(tv, bt709, progressive), 1920x1080 [SAR 1:1 DAR 16:9], 23.98 fps, 23.98 tbr, 1k tbn (default)
      Metadata:
        HANDLER_NAME    : VideoHandler
        VENDOR_ID       : [0][0][0][0]
        ENCODER         : Lavc61.19.100 libx265
        BPS             : 1021903
        DURATION        : 00:23:41.503708333
        NUMBER_OF_FRAMES: 34082
        NUMBER_OF_BYTES : 181579819
        _STATISTICS_WRITING_APP: mkvpropedit v66.0.0 ('Josie') 64-bit
        _STATISTICS_WRITING_DATE_UTC: 2025-06-03 13:58:41
        _STATISTICS_TAGS: BPS DURATION NUMBER_OF_FRAMES NUMBER_OF_BYTES
  Stream #0:1: Audio: aac (LC), 48000 Hz, stereo, fltp (default)
      Metadata:
        HANDLER_NAME    : SoundHandler
        VENDOR_ID       : [0][0][0][0]
        ENCODER         : Lavc61.19.100 aac
        BPS             : 194095
        DURATION        : 00:23:41.610000000
        NUMBER_OF_FRAMES: 66639
        NUMBER_OF_BYTES : 34491011
        _STATISTICS_WRITING_APP: mkvpropedit v66.0.0 ('Josie') 64-bit
        _STATISTICS_WRITING_DATE_UTC: 2025-06-03 13:58:41
        _STATISTICS_TAGS: BPS DURATION NUMBER_OF_FRAMES NUMBER_OF_BYTES
[mov,mp4,m4a,3gp,3g2,mj2 @ 0000026b05333bc0] Referenced QT chapter track not found
Input #1, mov,mp4,m4a,3gp,3g2,mj2, from 'G:\Аниме\Онгоинги\!_36_Осень_2024\DreamCast\Пуниру - милая слизь\[DC] Puniru wa Kawaii Slime - 12_Telegram.mp4':
  Metadata:
    major_brand     : isom
    minor_version   : 512
    compatible_brands: isomiso2avc1mp41
    encoder         : Lavf61.7.100
  Duration: 00:23:41.59, start: 0.000000, bitrate: 3617 kb/s
  Chapters:
    Chapter #1:0: start 0.000000, end 90.374000
      Metadata:
        title           : 
    Chapter #1:1: start 90.374000, end 1324.910000
      Metadata:
        title           : 
    Chapter #1:2: start 1324.910000, end 1421.590000
      Metadata:
        title           : 
  Stream #1:0[0x1](und): Video: h264 (High) (avc1 / 0x31637661), yuv420p(tv, bt709, progressive), 1920x1080 [SAR 1:1 DAR 16:9], 3469 kb/s, 23.98 fps, 23.98 tbr, 24k tbn (default)
      Metadata:
        handler_name    : VideoHandler
        vendor_id       : [0][0][0][0]
        encoder         : Lavc61.19.101 h264_qsv
  Stream #1:1[0x2](und): Audio: aac (HE-AACv2) (mp4a / 0x6134706D), 48000 Hz, stereo, fltp, 144 kb/s (default)
      Metadata:
        handler_name    : SoundHandler
        vendor_id       : [0][0][0][0]
Stream mapping:
  Stream #0:0 (hevc) -> settb:default
  Stream #1:0 (h264) -> settb:default
  ssim:default -> Stream #0:0 (wrapped_avframe)
  Stream #0:1 -> #0:1 (aac (native) -> pcm_s16le (native))
Output #0, null, to 'pipe:':
  Metadata:
    COMPATIBLE_BRANDS: isomiso2avc1mp41
    MAJOR_BRAND     : isom
    MINOR_VERSION   : 512
    encoder         : Lavf61.7.100
  Chapters:
    Chapter #0:0: start 0.021000, end 90.395000
      Metadata:
        title           : 
    Chapter #0:1: start 90.395000, end 1324.931000
      Metadata:
        title           : 
    Chapter #0:2: start 1324.931000, end 1421.611000
      Metadata:
        title           : 
  Stream #0:0: Video: wrapped_avframe, yuv420p10le(tv, bt709, progressive), 1920x1080 [SAR 1:1 DAR 16:9], q=2-31, 200 kb/s, 23.98 fps, 23.98 tbn
      Metadata:
        encoder         : Lavc61.19.100 wrapped_avframe
  Stream #0:1: Audio: pcm_s16le, 48000 Hz, stereo, s16, 1536 kb/s (default)
      Metadata:
        HANDLER_NAME    : SoundHandler
        VENDOR_ID       : [0][0][0][0]
        _STATISTICS_TAGS: BPS DURATION NUMBER_OF_FRAMES NUMBER_OF_BYTES
        BPS             : 194095
        DURATION        : 00:23:41.610000000
        NUMBER_OF_FRAMES: 66639
        NUMBER_OF_BYTES : 34491011
        _STATISTICS_WRITING_APP: mkvpropedit v66.0.0 ('Josie') 64-bit
        _STATISTICS_WRITING_DATE_UTC: 2025-06-03 13:58:41
        encoder         : Lavc61.19.100 pcm_s16le
frame=  170 fps=0.0 q=-0.0 size=N/A time=00:00:07.09 bitrate=N/A speed=13.7x    frame=  388 fps=378 q=-0.0 size=N/A time=00:00:16.18 bitrate=N/A speed=15.8x    frame=  550 fps=356 q=-0.0 size=N/A time=00:00:22.93 bitrate=N/A speed=14.8x    frame=  746 fps=361 q=-0.0 size=N/A time=00:00:31.11 bitrate=N/A speed=  15x    frame=  963 fps=374 q=-0.0 size=N/A time=00:00:40.16 bitrate=N/A speed=15.6x    frame= 1207 fps=390 q=-0.0 size=N/A time=00:00:50.34 bitrate=N/A speed=16.3x    frame= 1391 fps=385 q=-0.0 size=N/A time=00:00:58.01 bitrate=N/A speed=16.1x    frame= 1550 fps=375 q=-0.0 size=N/A time=00:01:04.64 bitrate=N/A speed=15.7x    frame= 1719 fps=371 q=-0.0 size=N/A time=00:01:11.69 bitrate=N/A speed=15.5x    frame= 1908 fps=371 q=-0.0 size=N/A time=00:01:19.57 bitrate=N/A speed=15.5x    frame= 2122 fps=374 q=-0.0 size=N/A time=00:01:28.50 bitrate=N/A speed=15.6x    frame= 2349 fps=380 q=-0.0 size=N/A time=00:01:37.97 bitrate=N/A speed=15.8x    frame= 2598 fps=387 q=-0.0 size=N/A time=00:01:48.35 bitrate=N/A speed=16.2x    frame= 2841 fps=394 q=-0.0 size=N/A time=00:01:58.49 bitrate=N/A speed=16.4x    frame= 3050 fps=395 q=-0.0 size=N/A time=00:02:07.21 bitrate=N/A speed=16.5x    frame= 3292 fps=399 q=-0.0 size=N/A time=00:02:17.30 bitrate=N/A speed=16.6x    frame= 3529 fps=403 q=-0.0 size=N/A time=00:02:27.18 bitrate=N/A speed=16.8x    frame= 3801 fps=410 q=-0.0 size=N/A time=00:02:38.53 bitrate=N/A speed=17.1x    frame= 4055 fps=414 q=-0.0 size=N/A time=00:02:49.12 bitrate=N/A speed=17.3x    frame= 4267 fps=414 q=-0.0 size=N/A time=00:02:57.96 bitrate=N/A speed=17.2x    frame= 4465 fps=412 q=-0.0 size=N/A time=00:03:06.22 bitrate=N/A speed=17.2x    frame= 4740 fps=417 q=-0.0 size=N/A time=00:03:17.69 bitrate=N/A speed=17.4x    frame= 4986 fps=420 q=-0.0 size=N/A time=00:03:27.95 bitrate=N/A speed=17.5x    frame= 5226 fps=422 q=-0.0 size=N/A time=00:03:37.96 bitrate=N/A speed=17.6x    frame= 5415 fps=420 q=-0.0 size=N/A time=00:03:45.85 bitrate=N/A speed=17.5x    frame= 5685 fps=424 q=-0.0 size=N/A time=00:03:57.11 bitrate=N/A speed=17.7x    frame= 5948 fps=427 q=-0.0 size=N/A time=00:04:08.08 bitrate=N/A speed=17.8x    frame= 6206 fps=429 q=-0.0 size=N/A time=00:04:18.84 bitrate=N/A speed=17.9x    frame= 6382 fps=426 q=-0.0 size=N/A time=00:04:26.18 bitrate=N/A speed=17.8x    frame= 6629 fps=428 q=-0.0 size=N/A time=00:04:36.48 bitrate=N/A speed=17.8x    frame= 6864 fps=429 q=-0.0 size=N/A time=00:04:46.28 bitrate=N/A speed=17.9x    frame= 7119 fps=431 q=-0.0 size=N/A time=00:04:56.92 bitrate=N/A speed=  18x    frame= 7391 fps=434 q=-0.0 size=N/A time=00:05:08.26 bitrate=N/A speed=18.1x    frame= 7639 fps=435 q=-0.0 size=N/A time=00:05:18.60 bitrate=N/A speed=18.2x    frame= 7878 fps=436 q=-0.0 size=N/A time=00:05:28.57 bitrate=N/A speed=18.2x    frame= 8085 fps=435 q=-0.0 size=N/A time=00:05:37.21 bitrate=N/A speed=18.1x    frame= 8337 fps=437 q=-0.0 size=N/A time=00:05:47.72 bitrate=N/A speed=18.2x    frame= 8574 fps=437 q=-0.0 size=N/A time=00:05:57.60 bitrate=N/A speed=18.2x    frame= 8818 fps=438 q=-0.0 size=N/A time=00:06:07.78 bitrate=N/A speed=18.3x    frame= 9063 fps=439 q=-0.0 size=N/A time=00:06:18.00 bitrate=N/A speed=18.3x    frame= 9337 fps=441 q=-0.0 size=N/A time=00:06:29.43 bitrate=N/A speed=18.4x    frame= 9602 fps=443 q=-0.0 size=N/A time=00:06:40.48 bitrate=N/A speed=18.5x    frame= 9832 fps=443 q=-0.0 size=N/A time=00:06:50.07 bitrate=N/A speed=18.5x    frame=10017 fps=441 q=-0.0 size=N/A time=00:06:57.79 bitrate=N/A speed=18.4x    frame=10265 fps=442 q=-0.0 size=N/A time=00:07:08.13 bitrate=N/A speed=18.4x    frame=10547 fps=444 q=-0.0 size=N/A time=00:07:19.89 bitrate=N/A speed=18.5x    frame=10803 fps=446 q=-0.0 size=N/A time=00:07:30.57 bitrate=N/A speed=18.6x    frame=11010 fps=445 q=-0.0 size=N/A time=00:07:39.20 bitrate=N/A speed=18.5x    frame=11221 fps=444 q=-0.0 size=N/A time=00:07:48.00 bitrate=N/A speed=18.5x    frame=11438 fps=443 q=-0.0 size=N/A time=00:07:57.05 bitrate=N/A speed=18.5x    frame=11688 fps=444 q=-0.0 size=N/A time=00:08:07.48 bitrate=N/A speed=18.5x    frame=11939 fps=445 q=-0.0 size=N/A time=00:08:17.95 bitrate=N/A speed=18.6x    frame=12183 fps=446 q=-0.0 size=N/A time=00:08:28.13 bitrate=N/A speed=18.6x    frame=12419 fps=446 q=-0.0 size=N/A time=00:08:37.97 bitrate=N/A speed=18.6x    frame=12675 fps=447 q=-0.0 size=N/A time=00:08:48.65 bitrate=N/A speed=18.6x    frame=12905 fps=447 q=-0.0 size=N/A time=00:08:58.24 bitrate=N/A speed=18.6x    frame=13175 fps=448 q=-0.0 size=N/A time=00:09:09.50 bitrate=N/A speed=18.7x    frame=13367 fps=447 q=-0.0 size=N/A time=00:09:17.51 bitrate=N/A speed=18.6x    frame=13626 fps=448 q=-0.0 size=N/A time=00:09:28.31 bitrate=N/A speed=18.7x    frame=13887 fps=449 q=-0.0 size=N/A time=00:09:39.20 bitrate=N/A speed=18.7x    frame=14145 fps=450 q=-0.0 size=N/A time=00:09:49.96 bitrate=N/A speed=18.7x    frame=14387 fps=450 q=-0.0 size=N/A time=00:10:00.05 bitrate=N/A speed=18.8x    frame=14653 fps=451 q=-0.0 size=N/A time=00:10:11.15 bitrate=N/A speed=18.8x    frame=14914 fps=452 q=-0.0 size=N/A time=00:10:22.03 bitrate=N/A speed=18.8x    frame=15169 fps=452 q=-0.0 size=N/A time=00:10:32.67 bitrate=N/A speed=18.9x    frame=15432 fps=453 q=-0.0 size=N/A time=00:10:43.64 bitrate=N/A speed=18.9x    frame=15675 fps=453 q=-0.0 size=N/A time=00:10:53.77 bitrate=N/A speed=18.9x    frame=15891 fps=453 q=-0.0 size=N/A time=00:11:02.78 bitrate=N/A speed=18.9x    frame=16142 fps=454 q=-0.0 size=N/A time=00:11:13.25 bitrate=N/A speed=18.9x    frame=16391 fps=454 q=-0.0 size=N/A time=00:11:23.64 bitrate=N/A speed=18.9x    frame=16658 fps=455 q=-0.0 size=N/A time=00:11:34.77 bitrate=N/A speed=  19x    frame=16910 fps=455 q=-0.0 size=N/A time=00:11:45.28 bitrate=N/A speed=  19x    frame=17133 fps=455 q=-0.0 size=N/A time=00:11:54.58 bitrate=N/A speed=  19x    frame=17353 fps=455 q=-0.0 size=N/A time=00:12:03.76 bitrate=N/A speed=  19x    frame=17583 fps=454 q=-0.0 size=N/A time=00:12:13.35 bitrate=N/A speed=  19x    frame=17810 fps=454 q=-0.0 size=N/A time=00:12:22.82 bitrate=N/A speed=18.9x    frame=18053 fps=455 q=-0.0 size=N/A time=00:12:32.96 bitrate=N/A speed=  19x    frame=18304 fps=455 q=-0.0 size=N/A time=00:12:43.42 bitrate=N/A speed=  19x    frame=18564 fps=456 q=-0.0 size=N/A time=00:12:54.27 bitrate=N/A speed=  19x    frame=18812 fps=456 q=-0.0 size=N/A time=00:13:04.61 bitrate=N/A speed=  19x    frame=19072 fps=457 q=-0.0 size=N/A time=00:13:15.46 bitrate=N/A speed=  19x    frame=19328 fps=457 q=-0.0 size=N/A time=00:13:26.13 bitrate=N/A speed=19.1x    frame=19610 fps=458 q=-0.0 size=N/A time=00:13:37.90 bitrate=N/A speed=19.1x    frame=19890 fps=459 q=-0.0 size=N/A time=00:13:49.57 bitrate=N/A speed=19.2x    frame=20166 fps=460 q=-0.0 size=N/A time=00:14:01.09 bitrate=N/A speed=19.2x    frame=20420 fps=460 q=-0.0 size=N/A time=00:14:11.68 bitrate=N/A speed=19.2x    frame=20656 fps=460 q=-0.0 size=N/A time=00:14:21.52 bitrate=N/A speed=19.2x    frame=20813 fps=459 q=-0.0 size=N/A time=00:14:28.07 bitrate=N/A speed=19.1x    frame=21018 fps=458 q=-0.0 size=N/A time=00:14:36.62 bitrate=N/A speed=19.1x    frame=21273 fps=458 q=-0.0 size=N/A time=00:14:47.26 bitrate=N/A speed=19.1x    frame=21513 fps=458 q=-0.0 size=N/A time=00:14:57.27 bitrate=N/A speed=19.1x    frame=21767 fps=459 q=-0.0 size=N/A time=00:15:07.86 bitrate=N/A speed=19.1x    frame=22030 fps=459 q=-0.0 size=N/A time=00:15:18.83 bitrate=N/A speed=19.2x    frame=22262 fps=459 q=-0.0 size=N/A time=00:15:28.51 bitrate=N/A speed=19.2x    frame=22530 fps=460 q=-0.0 size=N/A time=00:15:39.68 bitrate=N/A speed=19.2x    frame=22813 fps=461 q=-0.0 size=N/A time=00:15:51.49 bitrate=N/A speed=19.2x    frame=23072 fps=461 q=-0.0 size=N/A time=00:16:02.29 bitrate=N/A speed=19.2x    frame=23365 fps=462 q=-0.0 size=N/A time=00:16:14.51 bitrate=N/A speed=19.3x    frame=23645 fps=463 q=-0.0 size=N/A time=00:16:26.19 bitrate=N/A speed=19.3x    frame=23939 fps=464 q=-0.0 size=N/A time=00:16:38.45 bitrate=N/A speed=19.4x    frame=24220 fps=465 q=-0.0 size=N/A time=00:16:50.17 bitrate=N/A speed=19.4x    frame=24505 fps=466 q=-0.0 size=N/A time=00:17:02.06 bitrate=N/A speed=19.4x    frame=24791 fps=467 q=-0.0 size=N/A time=00:17:13.99 bitrate=N/A speed=19.5x    frame=25047 fps=467 q=-0.0 size=N/A time=00:17:24.66 bitrate=N/A speed=19.5x    frame=25306 fps=467 q=-0.0 size=N/A time=00:17:35.47 bitrate=N/A speed=19.5x    frame=25568 fps=468 q=-0.0 size=N/A time=00:17:46.39 bitrate=N/A speed=19.5x    frame=25796 fps=467 q=-0.0 size=N/A time=00:17:55.90 bitrate=N/A speed=19.5x    frame=26015 fps=467 q=-0.0 size=N/A time=00:18:05.04 bitrate=N/A speed=19.5x    frame=26223 fps=466 q=-0.0 size=N/A time=00:18:13.71 bitrate=N/A speed=19.5x    frame=26461 fps=466 q=-0.0 size=N/A time=00:18:23.64 bitrate=N/A speed=19.5x    frame=26710 fps=467 q=-0.0 size=N/A time=00:18:34.02 bitrate=N/A speed=19.5x    frame=26974 fps=467 q=-0.0 size=N/A time=00:18:45.04 bitrate=N/A speed=19.5x    frame=27189 fps=467 q=-0.0 size=N/A time=00:18:54.00 bitrate=N/A speed=19.5x    frame=27476 fps=467 q=-0.0 size=N/A time=00:19:05.97 bitrate=N/A speed=19.5x    frame=27762 fps=468 q=-0.0 size=N/A time=00:19:17.90 bitrate=N/A speed=19.5x    frame=28033 fps=469 q=-0.0 size=N/A time=00:19:29.20 bitrate=N/A speed=19.5x    frame=28325 fps=469 q=-0.0 size=N/A time=00:19:41.38 bitrate=N/A speed=19.6x    frame=28611 fps=470 q=-0.0 size=N/A time=00:19:53.31 bitrate=N/A speed=19.6x    frame=28893 fps=471 q=-0.0 size=N/A time=00:20:05.07 bitrate=N/A speed=19.6x    frame=29154 fps=471 q=-0.0 size=N/A time=00:20:15.96 bitrate=N/A speed=19.6x    frame=29437 fps=472 q=-0.0 size=N/A time=00:20:27.76 bitrate=N/A speed=19.7x    frame=29705 fps=472 q=-0.0 size=N/A time=00:20:38.94 bitrate=N/A speed=19.7x    frame=29987 fps=473 q=-0.0 size=N/A time=00:20:50.70 bitrate=N/A speed=19.7x    frame=30261 fps=473 q=-0.0 size=N/A time=00:21:02.13 bitrate=N/A speed=19.7x    frame=30529 fps=473 q=-0.0 size=N/A time=00:21:13.31 bitrate=N/A speed=19.7x    frame=30793 fps=474 q=-0.0 size=N/A time=00:21:24.32 bitrate=N/A speed=19.8x    frame=31062 fps=474 q=-0.0 size=N/A time=00:21:35.54 bitrate=N/A speed=19.8x    frame=31299 fps=474 q=-0.0 size=N/A time=00:21:45.42 bitrate=N/A speed=19.8x    frame=31492 fps=473 q=-0.0 size=N/A time=00:21:53.47 bitrate=N/A speed=19.7x    frame=31718 fps=473 q=-0.0 size=N/A time=00:22:02.90 bitrate=N/A speed=19.7x    frame=31976 fps=473 q=-0.0 size=N/A time=00:22:13.66 bitrate=N/A speed=19.7x    frame=32179 fps=473 q=-0.0 size=N/A time=00:22:22.13 bitrate=N/A speed=19.7x    frame=32423 fps=473 q=-0.0 size=N/A time=00:22:32.30 bitrate=N/A speed=19.7x    frame=32640 fps=472 q=-0.0 size=N/A time=00:22:41.36 bitrate=N/A speed=19.7x    frame=32839 fps=472 q=-0.0 size=N/A time=00:22:49.65 bitrate=N/A speed=19.7x    frame=33032 fps=471 q=-0.0 size=N/A time=00:22:57.70 bitrate=N/A speed=19.6x    frame=33268 fps=471 q=-0.0 size=N/A time=00:23:07.55 bitrate=N/A speed=19.6x    frame=33446 fps=470 q=-0.0 size=N/A time=00:23:14.97 bitrate=N/A speed=19.6x    frame=33633 fps=469 q=-0.0 size=N/A time=00:23:22.77 bitrate=N/A speed=19.6x    frame=33798 fps=468 q=-0.0 size=N/A time=00:23:29.65 bitrate=N/A speed=19.5x    frame=33978 fps=467 q=-0.0 size=N/A time=00:23:37.16 bitrate=N/A speed=19.5x    [Parsed_ssim_10 @ 0000026b0586d100] SSIM Y:0.994594 (22.671345) U:0.993384 (21.793994) V:0.993174 (21.658320) All:0.994156 (22.332702)
[out#0/null @ 0000026b0536f5c0] video:14645KiB audio:266556KiB subtitle:0KiB other streams:0KiB global headers:0KiB muxing overhead: unknown
frame=34082 fps=467 q=-0.0 Lsize=N/A time=00:23:41.50 bitrate=N/A speed=19.5x    
